<?xml version="1.0" encoding="utf-8"?>
<!-- Generator: Adobe Illustrator 24.2.1, SVG Export Plug-In . SVG Version: 6.00 Build 0)  -->
<svg version="1.1" id="Layer_1" xmlns="http://www.w3.org/2000/svg" xmlns:xlink="http://www.w3.org/1999/xlink" x="0px" y="0px"
	 viewBox="0 0 567.1 658.8" style="enable-background:new 0 0 567.1 658.8;" xml:space="preserve">
<style type="text/css">
	.st0{fill:none;stroke:#F9F1C2;}
	.st1{fill:none;stroke:#F9F1C2;stroke-miterlimit:10;}
</style>
<line class="st0" x1="165" y1="658.6" x2="165" y2="0.5"/>
<line class="st0" x1="530.7" y1="658.6" x2="530.7" y2="0.5"/>
<line class="st0" x1="0.5" y1="512.4" x2="567.1" y2="512.4"/>
<line class="st0" x1="0.5" y1="603.7" x2="567.1" y2="603.7"/>
<line class="st0" x1="347.8" y1="658.6" x2="347.8" y2="0.5"/>
<line class="st0" x1="0.5" y1="329.6" x2="567.1" y2="329.6"/>
<line class="st0" x1="0.5" y1="110.1" x2="567.1" y2="110.1"/>
<line class="st0" x1="91.8" y1="658.6" x2="91.8" y2="0.5"/>
<line class="st0" x1="457.5" y1="658.6" x2="457.5" y2="0.5"/>
<line class="st0" x1="0.5" y1="439.3" x2="567.1" y2="439.3"/>
<line class="st0" x1="274.6" y1="658.6" x2="274.6" y2="0.5"/>
<line class="st0" x1="0.5" y1="256.4" x2="567.1" y2="256.4"/>
<line class="st0" x1="0.5" y1="37" x2="567.1" y2="37"/>
<line class="st0" x1="18.7" y1="658.6" x2="18.7" y2="0.5"/>
<line class="st0" x1="384.4" y1="658.6" x2="384.4" y2="0.5"/>
<line class="st0" x1="0.5" y1="366.1" x2="567.1" y2="366.1"/>
<line class="st0" x1="0.5" y1="146.7" x2="567.1" y2="146.7"/>
<line class="st0" x1="201.5" y1="658.6" x2="201.5" y2="0.5"/>
<line class="st0" x1="128.4" y1="658.6" x2="128.4" y2="0.5"/>
<line class="st0" x1="494.1" y1="658.6" x2="494.1" y2="0.5"/>
<line class="st0" x1="0.5" y1="475.9" x2="567.1" y2="475.9"/>
<line class="st0" x1="0.5" y1="567.2" x2="567.1" y2="567.2"/>
<line class="st0" x1="0.5" y1="658.5" x2="567.1" y2="658.5"/>
<line class="st0" x1="311.2" y1="658.6" x2="311.2" y2="0.5"/>
<line class="st0" x1="0.5" y1="293" x2="567.1" y2="293"/>
<line class="st0" x1="0.5" y1="73.5" x2="567.1" y2="73.5"/>
<line class="st0" x1="55.2" y1="658.6" x2="55.2" y2="0.5"/>
<line class="st0" x1="420.9" y1="658.6" x2="420.9" y2="0.5"/>
<line class="st0" x1="0.5" y1="402.7" x2="567.1" y2="402.7"/>
<line class="st0" x1="0.5" y1="183.3" x2="567.1" y2="183.3"/>
<line class="st0" x1="238.1" y1="658.6" x2="238.1" y2="0.5"/>
<line class="st0" x1="0.5" y1="219.8" x2="567.1" y2="219.8"/>
<line class="st0" x1="0.5" y1="0.4" x2="567.1" y2="0.4"/>
<line class="st0" x1="146.7" y1="658.6" x2="146.7" y2="0.5"/>
<line class="st0" x1="512.4" y1="658.6" x2="512.4" y2="0.5"/>
<line class="st0" x1="0.5" y1="494.1" x2="567.1" y2="494.1"/>
<line class="st0" x1="0.5" y1="585.5" x2="567.1" y2="585.5"/>
<line class="st0" x1="329.5" y1="658.6" x2="329.5" y2="0.5"/>
<line class="st0" x1="0.5" y1="311.3" x2="567.1" y2="311.3"/>
<line class="st0" x1="0.5" y1="91.8" x2="567.1" y2="91.8"/>
<line class="st0" x1="73.5" y1="658.6" x2="73.5" y2="0.5"/>
<line class="st0" x1="439.2" y1="658.6" x2="439.2" y2="0.5"/>
<line class="st0" x1="0.5" y1="421" x2="567.1" y2="421"/>
<line class="st0" x1="0.5" y1="201.5" x2="567.1" y2="201.5"/>
<line class="st0" x1="256.3" y1="658.6" x2="256.3" y2="0.5"/>
<line class="st0" x1="0.5" y1="238.1" x2="567.1" y2="238.1"/>
<line class="st0" x1="0.5" y1="18.7" x2="567.1" y2="18.7"/>
<line class="st0" x1="0.4" y1="658.6" x2="0.4" y2="0.5"/>
<line class="st0" x1="366.1" y1="658.6" x2="366.1" y2="0.5"/>
<line class="st0" x1="0.5" y1="347.9" x2="567.1" y2="347.9"/>
<line class="st0" x1="0.5" y1="128.4" x2="567.1" y2="128.4"/>
<line class="st0" x1="183.2" y1="658.6" x2="183.2" y2="0.5"/>
<line class="st0" x1="548.9" y1="658.6" x2="548.9" y2="0.5"/>
<line class="st0" x1="567.2" y1="658.6" x2="567.2" y2="0.5"/>
<line class="st0" x1="0.5" y1="530.7" x2="567.1" y2="530.7"/>
<line class="st0" x1="0.5" y1="622" x2="567.1" y2="622"/>
<line class="st0" x1="110.1" y1="658.6" x2="110.1" y2="0.5"/>
<line class="st0" x1="475.8" y1="658.6" x2="475.8" y2="0.5"/>
<line class="st0" x1="0.5" y1="457.6" x2="567.1" y2="457.6"/>
<line class="st0" x1="0.5" y1="548.9" x2="567.1" y2="548.9"/>
<line class="st0" x1="0.5" y1="640.2" x2="567.1" y2="640.2"/>
<line class="st0" x1="292.9" y1="658.6" x2="292.9" y2="0.5"/>
<line class="st0" x1="0.5" y1="274.7" x2="567.1" y2="274.7"/>
<line class="st0" x1="0.5" y1="55.2" x2="567.1" y2="55.2"/>
<line class="st0" x1="37" y1="658.6" x2="37" y2="0.5"/>
<line class="st0" x1="402.6" y1="658.6" x2="402.6" y2="0.5"/>
<line class="st0" x1="0.5" y1="384.4" x2="567.1" y2="384.4"/>
<line class="st0" x1="0.5" y1="165" x2="567.1" y2="165"/>
<line class="st0" x1="219.8" y1="658.6" x2="219.8" y2="0.5"/>
<rect x="0.2" y="0.2" class="st1" width="566.8" height="658.3"/>
</svg>
