<svg xmlns="http://www.w3.org/2000/svg" viewBox="0 0 1134.19 658.83"><defs><style>.cls-1,.cls-2{fill:none;stroke:#000;stroke-width:0.5px;}.cls-2{stroke-miterlimit:10;}</style></defs><g id="Layer_2" data-name="Layer 2"><g id="Layer_1-2" data-name="Layer 1"><line class="cls-1" x1="164.97" y1="658.58" x2="164.97" y2="0.5"/><line class="cls-1" x1="530.66" y1="658.58" x2="530.66" y2="0.5"/><line class="cls-1" x1="0.5" y1="512.44" x2="1133.94" y2="512.44"/><line class="cls-1" x1="0.5" y1="603.74" x2="1133.94" y2="603.74"/><line class="cls-1" x1="347.77" y1="658.58" x2="347.77" y2="0.5"/><line class="cls-1" x1="0.5" y1="329.56" x2="1133.94" y2="329.56"/><line class="cls-1" x1="0.5" y1="110.1" x2="1133.94" y2="110.1"/><line class="cls-1" x1="713.46" y1="658.58" x2="713.46" y2="0.5"/><line class="cls-1" x1="859.89" y1="658.58" x2="859.89" y2="0.5"/><line class="cls-1" x1="988.16" y1="658.58" x2="988.16" y2="0.5"/><line class="cls-1" x1="1115.73" y1="658.58" x2="1115.73" y2="0.5"/><line class="cls-1" x1="91.81" y1="658.58" x2="91.81" y2="0.5"/><line class="cls-1" x1="457.5" y1="658.58" x2="457.5" y2="0.5"/><line class="cls-1" x1="0.5" y1="439.29" x2="1133.94" y2="439.29"/><line class="cls-1" x1="274.62" y1="658.58" x2="274.62" y2="0.5"/><line class="cls-1" x1="0.5" y1="256.41" x2="1133.94" y2="256.41"/><line class="cls-1" x1="0.5" y1="36.95" x2="1133.94" y2="36.95"/><line class="cls-1" x1="640.31" y1="658.58" x2="640.31" y2="0.5"/><line class="cls-1" x1="786.74" y1="658.58" x2="786.74" y2="0.5"/><line class="cls-1" x1="915.01" y1="658.58" x2="915.01" y2="0.5"/><line class="cls-1" x1="1042.57" y1="658.58" x2="1042.57" y2="0.5"/><line class="cls-1" x1="1024.29" y1="658.58" x2="1024.29" y2="0.5"/><line class="cls-1" x1="18.66" y1="658.58" x2="18.66" y2="0.5"/><line class="cls-1" x1="384.35" y1="658.58" x2="384.35" y2="0.5"/><line class="cls-1" x1="0.5" y1="366.14" x2="1133.94" y2="366.14"/><line class="cls-1" x1="0.5" y1="146.68" x2="1133.94" y2="146.68"/><line class="cls-1" x1="201.47" y1="658.58" x2="201.47" y2="0.5"/><line class="cls-1" x1="128.39" y1="658.58" x2="128.39" y2="0.5"/><line class="cls-1" x1="494.08" y1="658.58" x2="494.08" y2="0.5"/><line class="cls-1" x1="0.5" y1="475.86" x2="1133.94" y2="475.86"/><line class="cls-1" x1="0.5" y1="567.16" x2="1133.94" y2="567.16"/><line class="cls-1" x1="0.5" y1="658.46" x2="1133.94" y2="658.46"/><line class="cls-1" x1="311.2" y1="658.58" x2="311.2" y2="0.5"/><line class="cls-1" x1="0.5" y1="292.98" x2="1133.94" y2="292.98"/><line class="cls-1" x1="0.5" y1="73.53" x2="1133.94" y2="73.53"/><line class="cls-1" x1="676.89" y1="658.58" x2="676.89" y2="0.5"/><line class="cls-1" x1="823.32" y1="658.58" x2="823.32" y2="0.5"/><line class="cls-1" x1="951.58" y1="658.58" x2="951.58" y2="0.5"/><line class="cls-1" x1="1079.15" y1="658.58" x2="1079.15" y2="0.5"/><line class="cls-1" x1="1060.86" y1="658.58" x2="1060.86" y2="0.5"/><line class="cls-1" x1="55.24" y1="658.58" x2="55.24" y2="0.5"/><line class="cls-1" x1="420.93" y1="658.58" x2="420.93" y2="0.5"/><line class="cls-1" x1="0.5" y1="402.71" x2="1133.94" y2="402.71"/><line class="cls-1" x1="0.5" y1="183.26" x2="1133.94" y2="183.26"/><line class="cls-1" x1="238.05" y1="658.58" x2="238.05" y2="0.5"/><line class="cls-1" x1="0.5" y1="219.83" x2="1133.94" y2="219.83"/><line class="cls-1" x1="0.5" y1="0.38" x2="1133.94" y2="0.38"/><line class="cls-1" x1="603.73" y1="658.58" x2="603.73" y2="0.5"/><line class="cls-1" x1="750.16" y1="658.58" x2="750.16" y2="0.5"/><line class="cls-1" x1="878.43" y1="658.58" x2="878.43" y2="0.5"/><line class="cls-1" x1="146.68" y1="658.58" x2="146.68" y2="0.5"/><line class="cls-1" x1="512.37" y1="658.58" x2="512.37" y2="0.5"/><line class="cls-1" x1="0.5" y1="494.15" x2="1133.94" y2="494.15"/><line class="cls-1" x1="0.5" y1="585.45" x2="1133.94" y2="585.45"/><line class="cls-1" x1="329.49" y1="658.58" x2="329.49" y2="0.5"/><line class="cls-1" x1="0.5" y1="311.27" x2="1133.94" y2="311.27"/><line class="cls-1" x1="0.5" y1="91.82" x2="1133.94" y2="91.82"/><line class="cls-1" x1="695.17" y1="658.58" x2="695.17" y2="0.5"/><line class="cls-1" x1="841.6" y1="658.58" x2="841.6" y2="0.5"/><line class="cls-1" x1="969.87" y1="658.58" x2="969.87" y2="0.5"/><line class="cls-1" x1="1097.44" y1="658.58" x2="1097.44" y2="0.5"/><line class="cls-1" x1="73.53" y1="658.58" x2="73.53" y2="0.5"/><line class="cls-1" x1="439.21" y1="658.58" x2="439.21" y2="0.5"/><line class="cls-1" x1="0.5" y1="421" x2="1133.94" y2="421"/><line class="cls-1" x1="0.5" y1="201.54" x2="1133.94" y2="201.54"/><line class="cls-1" x1="256.33" y1="658.58" x2="256.33" y2="0.5"/><line class="cls-1" x1="0.5" y1="238.12" x2="1133.94" y2="238.12"/><line class="cls-1" x1="0.5" y1="18.66" x2="1133.94" y2="18.66"/><line class="cls-1" x1="622.02" y1="658.58" x2="622.02" y2="0.5"/><line class="cls-1" x1="768.45" y1="658.58" x2="768.45" y2="0.5"/><line class="cls-1" x1="896.72" y1="658.58" x2="896.72" y2="0.5"/><line class="cls-1" x1="1006" y1="658.58" x2="1006" y2="0.5"/><line class="cls-1" x1="1133.57" y1="658.58" x2="1133.57" y2="0.5"/><line class="cls-1" x1="0.38" y1="658.58" x2="0.38" y2="0.5"/><line class="cls-1" x1="366.06" y1="658.58" x2="366.06" y2="0.5"/><line class="cls-1" x1="0.5" y1="347.85" x2="1133.94" y2="347.85"/><line class="cls-1" x1="0.5" y1="128.39" x2="1133.94" y2="128.39"/><line class="cls-1" x1="183.18" y1="658.58" x2="183.18" y2="0.5"/><line class="cls-1" x1="548.87" y1="658.58" x2="548.87" y2="0.5"/><line class="cls-1" x1="567.22" y1="658.58" x2="567.22" y2="0.5"/><line class="cls-1" x1="0.5" y1="530.66" x2="1133.94" y2="530.66"/><line class="cls-1" x1="0.5" y1="621.95" x2="1133.94" y2="621.95"/><line class="cls-1" x1="110.1" y1="658.58" x2="110.1" y2="0.5"/><line class="cls-1" x1="475.79" y1="658.58" x2="475.79" y2="0.5"/><line class="cls-1" x1="0.5" y1="457.58" x2="1133.94" y2="457.58"/><line class="cls-1" x1="0.5" y1="548.87" x2="1133.94" y2="548.87"/><line class="cls-1" x1="0.5" y1="640.17" x2="1133.94" y2="640.17"/><line class="cls-1" x1="292.91" y1="658.58" x2="292.91" y2="0.5"/><line class="cls-1" x1="0.5" y1="274.7" x2="1133.94" y2="274.7"/><line class="cls-1" x1="0.5" y1="55.24" x2="1133.94" y2="55.24"/><line class="cls-1" x1="658.6" y1="658.58" x2="658.6" y2="0.5"/><line class="cls-1" x1="805.03" y1="658.58" x2="805.03" y2="0.5"/><line class="cls-1" x1="933.29" y1="658.58" x2="933.29" y2="0.5"/><line class="cls-1" x1="36.95" y1="658.58" x2="36.95" y2="0.5"/><line class="cls-1" x1="402.64" y1="658.58" x2="402.64" y2="0.5"/><line class="cls-1" x1="0.5" y1="384.42" x2="1133.94" y2="384.42"/><line class="cls-1" x1="0.5" y1="164.97" x2="1133.94" y2="164.97"/><line class="cls-1" x1="219.76" y1="658.58" x2="219.76" y2="0.5"/><line class="cls-1" x1="585.45" y1="658.58" x2="585.45" y2="0.5"/><line class="cls-1" x1="731.88" y1="658.58" x2="731.88" y2="0.5"/><rect class="cls-2" x="0.25" y="0.25" width="1133.69" height="658.33"/></g></g></svg>