<svg id="lift-off-logo" xmlns="http://www.w3.org/2000/svg" xmlns:xlink="http://www.w3.org/1999/xlink" viewBox="0 0 621.59 733.35">
  <defs>
    <style>.cls-1{fill:none;}.cls-2{clip-path:url(#clip-path);}.cls-3{fill:#828aed;}</style>
    <clipPath id="clip-path" transform="translate(0)"><rect class="cls-1" width="621.59" height="733.35"/></clipPath>
  </defs>
  <g id="Layer_2" data-name="Layer 2">
    <g id="Layer_1-2" data-name="Layer 1">
      <g class="cls-2">
        <path class="cls-3" d="M541.33,366.41H384v4.95c15.51,0,28.49,0,28.49,10.88V711.59c0,10.88-13,10.88-28.49,10.88v4.94h76v-4.94c-15.51,0-28.49,0-28.49-10.88V530.1h69.65c16.14,0,20.58,20.27,20.58,44.5h3.16v-94h-3.16c0,24.23-4.44,44.5-20.58,44.5H431.48V382.24c0-10.88,13-10.88,28.18-10.88h.63c79.14,0,78.51,28.18,84.84,74.17h3.17Zm-177,0H207v4.95c15.51,0,28.49,0,28.49,10.88V711.59c0,10.88-13,10.88-28.49,10.88v4.94h76v-4.94c-15.52,0-28.5,0-28.5-10.88V530.1h69.65c16.14,0,20.58,20.27,20.58,44.5h3.16v-94h-3.16c0,24.23-4.44,44.5-20.58,44.5H254.52V382.24c0-10.88,13-10.88,28.18-10.88h.63c79.14,0,78.51,28.18,84.84,74.17h3.17ZM101.94,726.92c-46.22,0-81-61.32-81-180s34.83-180,81.05-180c45.9,0,81,61.32,81,180s-35.14,180-81,180m0,6.43c56,0,101.93-83.08,101.93-186.44S158,360.48,101.94,360.48C45.59,360.48,0,443.56,0,546.91S45.59,733.35,101.94,733.35" transform="translate(0)"/>
        <path class="cls-3" d="M616.33,0H451.11l-5.57,77.33h3.09c6.19-45.91,10.52-72,48-72.5,15.16,0,27.85,0,27.85,10.64V337.36c0,10.64-12.69,10.64-27.85,10.64v4.83h74.26V348c-15.16,0-27.85,0-27.85-10.64V15.47c0-10.64,12.69-10.64,27.85-10.64,37.44,0,41.46,26.59,47.65,72.5h3.09Zm-190,0H272.59V4.83c15.16,0,27.84,0,27.84,10.64V337.36c0,10.64-12.68,10.64-27.84,10.64v4.83h74.25V348c-15.16,0-27.84,0-27.84-10.64V160h68.07c15.77,0,20.11,19.82,20.11,43.5h3.09V111.65h-3.09c0,23.68-4.34,43.5-20.11,43.5H319V15.47c0-10.64,12.68-10.64,27.53-10.64h.62c77.35,0,76.73,27.55,82.92,72.5h3.1ZM254,4.83V0H179.77V4.83c15.16,0,27.84,0,27.84,10.64V337.36c0,10.64-12.68,10.64-27.84,10.64v4.83H254V348c-15.16,0-27.84,0-27.84-10.64V15.47c0-10.64,12.68-10.64,27.84-10.64M167.39,261c-6.19,60.42-4.33,87-92.82,87H74c-14.85,0-27.54,0-27.54-10.64V15.47C46.41,4.83,59.1,4.83,74.26,4.83V0H0V4.83c15.16,0,27.85,0,27.85,10.64V337.36C27.85,348,15.16,348,0,348v4.83H163.06L170.48,261Z" transform="translate(0)"/>
      </g>
    </g>
  </g>
</svg>
